<!--?xml version="1.0" standalone="no"?-->

<svg version="1.0" xmlns="http://www.w3.org/2000/svg" width="273.000000pt" height="300.000000pt" viewBox="0 0 273.000000 300.000000" preserveAspectRatio="xMidYMid meet">
<g transform="translate(0.000000,300.000000) scale(0.100000,-0.100000)" fill="#050505" stroke="none">
<path d="M700 2980 c-41 -10 -93 -21 -115 -25 -61 -10 -119 -74 -135 -148 -23
-114 19 -259 102 -351 52 -59 94 -72 197 -57 136 19 310 33 326 27 11 -4 15
-21 15 -63 0 -63 -19 -122 -75 -233 -19 -38 -31 -71 -27 -73 4 -2 19 -7 34
-11 80 -19 151 -139 187 -316 38 -188 22 -284 -73 -418 -70 -100 -137 -179
-169 -201 -107 -72 -122 -76 -138 -33 -11 30 -79 96 -121 118 -15 8 -34 27
-43 43 -13 25 -22 30 -69 36 -76 10 -88 5 -115 -44 l-24 -43 29 -24 c16 -12
47 -27 69 -33 22 -5 75 -19 119 -29 43 -11 87 -29 98 -40 19 -19 20 -21 3 -49
-23 -39 -71 -69 -125 -76 l-46 -6 -14 42 c-21 58 -46 60 -110 6 -53 -44 -57
-55 -81 -179 -19 -102 -23 -445 -6 -480 8 -16 12 -40 10 -54 -3 -14 -1 -26 4
-26 6 0 13 -29 16 -64 8 -85 30 -137 68 -158 33 -19 89 -24 104 -9 12 11 122
57 183 76 54 18 137 81 153 118 11 26 29 37 29 17 0 -5 4 -10 8 -10 9 0 42 70
42 88 0 7 6 12 13 12 23 1 45 47 52 112 7 67 22 104 32 81 10 -27 21 -11 39
55 21 79 20 78 36 64 10 -8 17 3 32 49 10 33 24 59 32 59 7 0 16 16 20 38 4
20 13 46 20 57 8 11 14 26 14 35 0 8 29 46 64 83 81 86 85 105 62 317 -20 192
-20 238 0 331 23 100 56 163 120 225 61 60 105 78 179 72 58 -5 97 -30 134
-85 38 -59 22 -175 -44 -320 -21 -45 -19 -63 8 -63 37 0 121 -51 202 -122 42
-38 80 -68 84 -68 5 0 11 17 14 37 4 23 27 67 57 108 27 38 50 73 50 77 0 5
20 50 43 101 67 141 80 203 74 349 -7 158 -23 331 -36 388 -32 141 -93 272
-148 320 -21 19 -38 39 -38 46 0 23 -75 72 -217 144 -154 78 -235 103 -295 90
-60 -12 -401 -21 -405 -10 -2 6 -51 22 -110 37 -59 15 -105 30 -102 34 7 11
-103 41 -166 45 -31 2 -87 -5 -130 -16z" id="node1" class="node"></path>
<path d="M573 1917 c-62 -21 -63 -22 -63 -59 0 -35 2 -38 28 -38 15 1 56 7 92
15 36 8 86 14 113 15 26 0 47 2 47 3 0 8 -32 67 -38 71 -4 2 -32 6 -62 9 -41
4 -71 0 -117 -16z" id="node2" class="node"></path>
</g>
<g transform="translate(0.000000,300.000000) scale(0.100000,-0.100000)" fill="#A1A1A1" stroke="none">


</g>
</svg>